<?xml version="1.0" encoding="utf-8"?>
<!-- Generator: Adobe Illustrator 23.0.1, SVG Export Plug-In . SVG Version: 6.00 Build 0)  -->
<svg version="1.1" id="Warstwa_1" xmlns="http://www.w3.org/2000/svg" xmlns:xlink="http://www.w3.org/1999/xlink" x="0px" y="0px"
	 viewBox="0 0 2008 2675" style="enable-background:new 0 0 2008 2675;" xml:space="preserve">
<style type="text/css">
	.st0{fill:#FFFFFF;}
</style>
<g>
	<path class="st0" d="M209.79,1670.7c0-465.01,0-930.13,0-1395.38c531.62,0,1063.36,0,1595.23,0c0,465.01,0,930.13,0,1395.38
		C1273.4,1670.7,741.66,1670.7,209.79,1670.7z M1028.85,443.52c-2.4-6.01-3.26-13.57-7.47-17.77
		c-21.04-20.99-40.49-44.94-65.05-60.78c-70.95-45.75-149.82-54.37-231.38-37.65c-59.13,12.12-111.74,38.35-158.06,77.86
		c-36.25,30.91-66.81,66.78-85.15,109.88c-14.05,33.02-21.98,69.7-26.22,105.51c-3.11,26.27,4.47,53.75,6.57,80.74
		c0.37,4.77-2.81,9.81-4.34,14.73c-5.95-2.16-14.44-2.52-17.44-6.76c-18.76-26.53-37.89-49.21-76.15-42.66
		c-20.02,3.42-24.68,6.48-18.2,26.64c6.76,21.03,14.75,41.71,20.54,62.99c4.25,15.62,5.14,32.12,8.73,47.95
		c5.34,23.53,11.74,46.83,17.69,70.22c-1.61,0.64-3.22,1.28-4.83,1.92c-7.11-13.19-13.66-26.72-21.43-39.51
		c-24.61-40.53-52.64-76.46-107.53-71.19c-6.9,0.66-19.07,2.96-19.38,5.59c-1.05,9.09-0.5,20.22,4.07,27.77
		c14.14,23.37,30.53,45.36,45.81,68.05c14.23,21.13,25.76,42.93,29.6,69.14c5.87,40.07,36.59,68.06,55.51,101.69
		c16.3,28.97,37.66,54.94,46.81,87.88c1.78,6.42,7.27,11.8,10.96,17.71c2.84,4.55,7.44,8.98,7.98,13.83
		c2.39,21.37,16.63,35.45,31.16,47.72c15.14,12.78,34.16,20.85,50.34,32.55c28.96,20.94,55.97,44.72,85.82,64.22
		c31.9,20.84,63.25,42.13,88.76,70.41c15.76,17.47,33.94,34.1,37.9,59.66c1.8,11.61,9.24,12.92,19.48,7.68
		c-7.17-32.48-26.58-57.28-48.81-78.51c-24.33-23.23-52.39-42.6-79.09-63.31c-29.44-22.84-59.08-45.44-88.87-67.82
		c-7.7-5.78-15.7-12.05-24.6-15.17c-26.91-9.44-43.54-28.82-56.17-53.07c-20.1-38.59-39.55-77.58-61.16-115.31
		c-14.96-26.12-33.22-50.35-49.69-75.63c-2.23-3.42-2.98-7.94-3.91-12.06c-9.13-40.33-21.85-78.84-48.39-111.9
		c-15.99-19.92-29.65-41.72-45.58-64.43c39.9-6.37,69.42,4.26,89.45,34.06c18.92,28.14,35.78,57.71,52.63,87.17
		c14.18,24.8,12.85,17.89-7.53,33.68c-14.69,11.38-18.65,19.15-8.89,35.17c14.11,23.19,29.72,45.76,47.11,66.57
		c13.35,15.98,29.74,29.7,46.04,42.86c16.6,13.41,36.02,23.47,51.9,37.59c23.28,20.69,45.96,42.49,59.58,71.51
		c1.38,2.94,2.2,6.91,4.56,8.45c3.21,2.1,7.65,2.31,11.56,3.34c0.62-3.42,2.05-6.95,1.64-10.24c-0.46-3.64-2.17-7.34-4.11-10.54
		c-29.98-49.46-79.56-78.23-121.56-115.03c-21.97-19.25-43.33-39.19-64.97-58.81c3.93-1.96,5.14-0.78,6.58-0.25
		c8.14,2.94,21.68,10.16,23.62,7.82c10.82-13.03,35.36-14.71,33.31-38.23c-0.32-3.61-1.61-7.9-3.98-10.43
		c-7.47-7.98-15.68-15.26-23.6-22.82c0.89-1.19,1.78-2.38,2.67-3.57c18.58,13.54,38.1,25.97,55.53,40.86
		c29.14,24.89,54.7,54.52,85.84,76.35c41.49,29.08,88.48,48.88,136.82,65.24c18.58,6.29,37.98,15.37,52.09,28.47
		c22.98,21.35,42.43,46.63,62.42,71.03c22.7,27.71,45.27,55.61,66.17,84.67c15.19,21.12,30.46,43.09,40.22,66.92
		c6.65,16.24,21.83,25.13,25.66,42.17c6.55-14.89,12.59-28.68,16.1-43.09c15.24-62.64,47.14-116.48,86.2-166.73
		c28.97-37.26,68.25-61.28,109.46-81.4c27.97-13.66,58.71-21.57,88.04-32.49c48.87-18.19,92.62-45.65,134.22-76.53
		c14.08-10.45,28.15-21.95,38.96-35.56c18.49-23.27,42.91-34.85,69.63-43.6c-22.64,16.75-30.1,31.68-22.6,46.9
		c5.39,10.92,37.22,26.78,51.99,22.68c-12.78,10.9-22.38,19.55-32.45,27.61c-22.27,17.83-43.16,38.15-67.58,52.33
		c-32.81,19.04-57.73,44.67-78.71,75.17c-4.69,6.81-8.53,14.21-12.75,21.34c1.42,1.55,2.85,3.1,4.27,4.65
		c3.93-2.54,8.94-4.27,11.6-7.78c9.66-12.73,16.55-28.28,28.13-38.7c23.94-21.54,49.6-41.35,75.68-60.3
		c45.84-33.31,88.33-69.61,114.9-120.9c4.33-8.35,6.03-18.76-4.51-26.22c-8.21-5.81-15.8-12.5-25.07-19.92
		c11.06-17.49,24.21-34.23,32.94-53.02c13.52-29.1,31.45-54.24,57.6-72.34c19.57-13.55,42.08-18.44,66.92-11.95
		c-6.2,9.3-11.62,17.77-17.39,26c-11.93,17.02-22.93,34.85-36.36,50.6c-16,18.77-29.87,38.44-33.63,63.01
		c-4.66,30.5-22.5,53.99-38.91,78.22c-14.59,21.54-32.27,41.13-45.5,63.42c-14.06,23.68-24.77,49.4-36.43,74.46
		c-10.78,23.17-22.88,45.05-46.4,57.91c-9.45,5.17-19.31,9.72-28.27,15.63c-28.82,19.03-57.29,38.6-85.94,57.89
		c-42.68,28.75-86.57,55.83-121.28,94.88c-15.32,17.24-25.65,36.64-29.45,60.29c5.67-2.93,9.68-7.27,12.77-12.18
		c6.23-9.91,10.32-21.72,18.23-29.92c21.33-22.12,42.61-44.83,66.87-63.46c29.46-22.62,61.98-41.24,93.1-61.7
		c25.63-16.85,51.11-33.93,76.78-50.74c8.55-5.6,20.21-8.69,25.68-16.34c16.7-23.33,36.4-46.57,45.11-73.07
		c13.44-40.91,39.94-73.16,62.77-107.16c21.88-32.58,44-63.14,50.36-102.92c1.43-8.93,8.6-17.34,14.3-25.13
		c12.45-17.01,25.93-33.26,38.45-50.23c7.66-10.38,14.16-21.6,21.45-32.26c6.44-9.43,4.32-27.22-4.04-27.47
		c-24.8-0.74-50.68-5.6-73.15,9.5c-21.62,14.53-39.69,32.86-52.91,55.65c-6.95,11.98-14.4,23.66-21.62,35.48
		c-0.61-10.56,2.04-20.04,2.35-29.59c0.7-21.65,8.1-40.29,18.53-59.29c18.23-33.18,37.36-66.81,48.78-102.59
		c21.3-66.72,9.25-131.6-24.3-192.38c-7.84-14.21-17.31-27.89-28.01-40.09c-39.18-44.68-86.54-77.82-143.66-95.5
		c-137.95-42.69-263.74-20.78-375.35,72.67c-8.8,7.37-15.2,17.62-22.71,26.52C1037.38,445.56,1033.12,444.54,1028.85,443.52z
		 M828.33,1575.5c2.08-16.95,4.7-31.06,5.2-45.26c0.3-8.38-0.16-21.53-4.95-24.21c-6.99-3.92-18.18-0.37-30.71,0.12
		c-5.32-6.4-35.17-6.43-53.54-0.84c-10.38-0.84-20.77-1.69-30.55-2.48c2.24,10.05,5.64,16.59,4.61,22.34
		c-2.94,16.53-7.67,32.75-11.73,49.21c16.36,5.04,23.06,1.14,25.36-13.4c3.76-23.81,12.3-44.71,44.1-48.02
		c-4.59,21.17-8.98,41.4-13.36,61.62c16.74,5.23,22.21-0.11,25.41-14.84c2.99-13.77,11.28-26.4,17.24-39.53
		c2.28,0.79,4.57,1.58,6.85,2.37c-2.35,18.64-4.71,37.28-7.33,58.05C815.22,1578.37,822.41,1576.8,828.33,1575.5z M1279.76,1522.34
		c3.09-3.68,5.46-6.64,7.97-9.48c15.85-17.91,5.89-30.41-9.85-33.92c-14.24-3.18-29.75-0.67-40.97-0.67
		c-6.15,35.85-11.43,66.67-16.9,98.55c9.71,0,20.61,0.79,31.37-0.15C1283.77,1573.82,1298.88,1553.45,1279.76,1522.34z
		 M1082.42,1532.26c8.17-8.61,16.5-17.38,26.02-27.42c-21.96-6.84-26.14,13.3-38.37,20.95c2.19-12.22,4.43-22.74,5.83-33.37
		c0.88-6.66,2.32-18.62,0.31-19.35c-7.83-2.83-16.93-2.12-22.06-2.48c-5.17,37.05-9.86,70.65-14.58,104.42
		c19.14,6.32,21.11-9.41,26.62-20.34c20.44,29.9,20.44,29.9,37.07,18.08C1096.39,1559.4,1089.56,1546.14,1082.42,1532.26z
		 M1644.91,1472.35c-11.54,0-21.58,0-32.06,0c2,6.27,4.79,10.38,4.21,13.94c-4.12,25.45-9.14,50.76-13.3,76.21
		c-0.7,4.3,1.37,9.05,2.16,13.6c5.61-2.29,12.6-3.27,16.41-7.27c3.45-3.62,3.43-10.55,5.45-17.9c12.49,12.28,16.63,39.65,42,23
		c-5.65-8.88-11.47-17.48-16.7-26.42c-6.45-11.04-7.76-20.61,6.71-27.41c4.99-2.34,8.06-8.78,12.29-13.68
		c-22.82-13.03-23.74,12.08-36.94,17.82C1638.49,1506.48,1641.57,1490.1,1644.91,1472.35z M479.05,1490.86
		c-16.21,22.09-32.02,43.08-47.09,64.59c-3.37,4.81-4.11,11.45-6.07,17.24c4.35,1.41,8.65,3.85,13.05,4.03
		c13.06,0.54,26.16,0.42,39.24,0.14c15.35-0.32,19.07-6.49,14.8-21.93c-13.4,5.09-27.01,10.26-40.61,15.43
		c-0.77-1.71-1.54-3.42-2.32-5.13c3.54-3.94,7.33-7.68,10.58-11.85c14.61-18.71,29.58-37.17,43.37-56.47
		c8-11.2,3.51-20.22-8.6-20.33c-10.63-0.1-21.26-0.09-31.89-0.17c-17.3-0.13-22.74,9.09-14.9,26.03
		C456.93,1495.9,462.22,1481.75,479.05,1490.86z M1363.28,1504.15c-13.82,0-27.47-3-39.03,0.64c-21.99,6.93-35.97,42.93-27,64.79
		c1.59,3.88,6.91,8.85,10.5,8.84c16.09-0.01,32.17-1.64,45.33-2.49C1356.66,1550.77,1359.88,1528.12,1363.28,1504.15z
		 M705.79,1505.58c-9.79-1.17-17.1-3.95-23.28-2.35c-10.86,2.8-24.89,5.44-30.63,13.26c-10.41,14.19-21.71,31.17-15.7,50.39
		c2.63,8.4,11.27,16.66,23.36,9.87c3.75-2.11,7.69-3.89,11.7-5.9c7.81,17.38,18.28,3.78,25.13,3.77
		C699.62,1550.75,702.67,1528.41,705.79,1505.58z M945.2,1505.59c-48.67-9.2-58.88,4.42-66.62,41.29
		c-1.89,8.99-0.27,22.39,5.41,28.16c4.61,4.68,17.74,0.95,29.33,0.95c6.08,11.68,15.89-0.65,22.21-1.61
		c1.64-12.83,2.9-23.56,4.41-34.25C941.58,1528.57,943.45,1517.03,945.2,1505.59z M1491.14,1504.28c-5.09,0-8.76,0.33-12.36-0.05
		c-35.82-3.78-54.56,12.53-54.81,47.84c-0.19,26.5,1.76,28.14,27.41,23.39c1.91-0.35,3.93-0.36,5.87-0.23
		c8.78,0.6,17.55,1.3,23.39,1.75C1484.42,1550.85,1487.63,1528.63,1491.14,1504.28z M1039.45,1498.64
		c3.47-7.9,8.95-18.87-3.97-21.16c-16.67-2.96-34.26-0.72-51.29-0.72c6.35,36.02-8.8,66.37-15.8,100.01
		c15.98,0,31.65,0.87,47.18-0.29c11.43-0.85,14.42-9.11,11.89-21.91c-4.04,3.05-6.5,5.74-9.56,7.03c-5.44,2.28-11.25,3.71-16.9,5.5
		c-0.82-5.44-2.51-10.91-2.29-16.3c0.5-12.54,4.24-22.41,20.22-20.43c2.36,0.29,5.18-3.09,9.91-6.15
		c-8.98-1.34-15.49-2.31-22.43-3.34c1.42-3.07,2.64-4.89,3.12-6.89c2.14-8.87,1.13-21.12,6.67-26
		C1027.56,1477.99,1028.26,1499.95,1039.45,1498.64z M1106.2,1550.04c-0.11,24.29,17.07,35.43,39.75,25.77
		c18.62-7.93,33.08-37.85,27.06-57.06c-3.15-10.05-9.41-15.37-21.24-16.5C1125.04,1499.69,1106.08,1525.69,1106.2,1550.04z
		 M595.85,1569.46c-0.54-1.75-1.08-3.49-1.62-5.24c-2.38,0.11-5.15-0.55-7.06,0.45c-10.2,5.28-18.37,4.38-21.44-7.81
		c-2.8-11.14,3.25-15.61,14.07-16.6c5.12-0.47,11.45-2.55,14.6-6.18c4.27-4.93,8.1-12.04,8.11-18.22
		c0.01-4.25-6.27-11.35-10.65-12.15c-7.52-1.37-16.48-0.54-23.55,2.42c-22.72,9.51-26.04,29.76-25.55,51.32
		c0.34,15.17,10.77,25.01,25.32,22.24C577.64,1577.85,586.61,1572.97,595.85,1569.46z M1396.57,1510.25
		c0.51,1.42,1.02,2.83,1.52,4.25c-12.21,15.58-24.75,30.92-36.48,46.85c-4.73,6.42-5.74,14.31,5.34,15.13
		c13,0.95,26.19,0.98,39.14-0.28c3.85-0.37,7.15-6.39,10.7-9.82c-1.1-1.18-2.21-2.36-3.31-3.54c-9.15,1.35-18.3,2.71-30.65,4.53
		c14.79-17.26,27.51-31.7,39.68-46.59c2.8-3.42,6.1-9.32,4.87-12.33c-1.25-3.06-7.69-5.16-12.05-5.56
		c-9.19-0.83-18.5-0.18-27.75-0.28c-15.09-0.15-15.7,8.88-13.85,21.38C1382.13,1518.95,1389.35,1514.6,1396.57,1510.25z
		 M1595.62,1564.41c-8.51,1.15-16.15,4.3-21.87,2.2c-3.65-1.34-6.78-10.89-5.8-15.91c0.77-3.95,7.92-8.85,12.69-9.41
		c12.18-1.42,19.36-8.29,21.54-18.84c1.06-5.1-2.63-15.47-6.05-16.38c-8.77-2.33-20.95-4.27-27.52,0.07
		c-15.52,10.25-26.73,25.06-26.82,45.71c-0.05,12.29,0.81,22.5,15.65,26.23C1572.05,1581.77,1587.12,1577.48,1595.62,1564.41z
		 M614.13,1472.33c1.1,10.1,3.43,17.11,2.28,23.5c-3.85,21.5-9.02,42.76-13.54,64.14c-3.87,18.31-0.25,21.88,17.42,17.27
		c3.82-1,7.5-2.53,10.98-3.73c-2.77-5.15-6.78-9.08-6.17-12.04c5.03-24.06,10.21-48.13,16.83-71.78
		c3.68-13.12,0.41-19.94-13.32-19.67C622.95,1470.13,617.32,1471.79,614.13,1472.33z M1558.04,1505.15c-21.81,0-40.36,0-57.13,0
		c0.97,7.65,2.88,12.86,1.98,17.53c-2.61,13.52-7.12,26.71-9.19,40.29c-0.63,4.11,4.24,9.05,6.59,13.61
		c4.83-2.73,10.31-4.77,14.25-8.45c2.36-2.21,2.35-6.99,3.34-10.64c4.82-17.73,8.69-35.91,30.56-41.42
		C1551.66,1515.26,1553.8,1510.16,1558.04,1505.15z M511.77,1504.56c0.75,8.32,2.42,14.05,1.52,19.34
		c-2.22,13.05-5.8,25.86-8.5,38.84c-3.06,14.68,1.39,18.55,16.44,14.69c3.02-0.77,6.01-1.61,4.59-1.23
		c5.44-25.58,10.28-48.32,15.7-73.76C529.48,1503.3,519.73,1503.99,511.77,1504.56z M850.02,1504.27c0,11.65,1.07,19.47-0.25,26.87
		c-1.95,10.9-6.34,21.36-8.37,32.26c-2.82,15.11,1.33,18.26,16.75,14.18c3.08-0.81,6.17-1.6,4.65-1.21
		c4.5-25.47,8.56-48.43,12.99-73.46C867.05,1503.37,857.32,1503.88,850.02,1504.27z M549.63,1487.16
		c-7.72-5.25-12.06-10.5-15.33-9.9c-5.09,0.93-9.46,5.83-14.13,9.05c3.43,3.88,6.88,10.94,10.28,10.91
		C535.58,1497.18,540.68,1492.2,549.63,1487.16z M884.45,1485.81c-7.9-4.65-12.53-9.45-15.33-8.55c-4.48,1.44-7.74,6.65-11.52,10.27
		c3.35,3.38,6.93,9.68,10.01,9.44C872.11,1496.63,876.26,1491.6,884.45,1485.81z M1218.11,1533.33c-0.31-2.37-0.62-4.74-0.93-7.11
		c-12.52,1.56-26.58-6.47-37.45,5.41c0.3,2.11,0.59,4.22,0.89,6.33C1193.12,1536.42,1205.61,1534.87,1218.11,1533.33z"/>
	<path class="st0" d="M1028.85,443.52c4.27,1.02,8.53,2.04,12.8,3.05c25.43-18.6,49.69-39.09,76.47-55.46
		c125.6-76.73,319.86-71.3,431.51,40.29c32.03,32.02,57.91,68.32,67.73,113.02c13.05,59.39,9.75,117.01-18.03,173.47
		c-23.79,48.37-56.35,89.35-94.49,125.71c-63.33,60.38-137.8,106.15-211.1,153.17c-73.27,47.01-146.83,93.43-205.59,159.28
		c-47.4,53.12-83.02,112.6-102.71,181.3c-5.98,20.86-12.34,41.62-18.3,61.66c-19.76-37.49-39.08-75.17-59.42-112.28
		c-8.87-16.18-18.36-32.43-30.1-46.54c-31.94-38.4-64.62-76.23-98.19-113.22c-28.1-30.96-58.42-59.9-86.73-90.68
		c-32.71-35.56-65.58-71.12-95.95-108.65c-21.76-26.9-39.6-56.98-59.03-85.74c-28.74-42.52-46.58-90.23-56.72-139.62
		c-13.05-63.58-10.21-127.83,20.42-186.74c14.85-28.57,33.95-56.06,55.9-79.57c39.57-42.39,88.73-71.5,144.55-88.71
		c71.83-22.16,142.99-21.22,213.18,6.44C961.89,372.14,998.62,403.81,1028.85,443.52z M1217.82,810.11
		c55.13,3.99,115.27-18.12,175.56-39.34c3.14-1.1,5.44-4.58,8.14-6.95c-2.88-2.78-5.29-6.81-8.72-8.11
		c-12.74-4.82-25.91-8.48-38.75-13.04c-108.1-38.38-215.28-34.13-321.49,7.24c-5.86,2.28-10.17,8.56-15.19,12.98
		c5.25,4.88,9.67,11.68,15.87,14.33C1088.76,800.94,1147.21,810.02,1217.82,810.11z M722.91,810.68
		c64.74-0.09,122.1-9.05,176.76-31.63c6.91-2.86,12.27-9.47,18.35-14.34c-5.77-5.12-10.77-13.05-17.45-14.9
		c-37.13-10.3-74.28-21.36-112.15-28.01c-84.24-14.8-164.66,3.64-243.07,33.58c-3.35,1.28-7.61,6.02-7.48,8.97
		c0.13,3.06,4.59,7.17,8.07,8.58c8.03,3.26,16.89,4.47,24.91,7.73C621.51,801.25,674.13,811.36,722.91,810.68z M1014.52,741.67
		c1.62-0.2,3.27-0.27,4.86-0.6c54.53-11.28,104.7-32.79,150.99-63.72c47.2-31.54,78.04-76.19,101.89-126.39
		c2.19-4.62,2.99-12.87,0.36-15.99c-2.78-3.29-11.07-4.53-15.89-3.1c-59.99,17.86-119.75,35.53-169.84,76.54
		c-37.9,31.03-66.69,68.07-87.03,112.03C993.79,733.58,1000.1,741.64,1014.52,741.67z M907.51,943.66
		c-5.64,51.12,19.79,93.75,46.87,135.72c9.47,14.67,16.24,15.56,25.18,1.19c13.17-21.15,27.16-42.58,35.46-65.8
		c24.77-69.28,13.75-134.94-25.88-196.41c-14.73-22.84-29.8-23.22-44.47,0.34C921.25,856.3,904.93,896.24,907.51,943.66z
		 M1014.28,783.31c-13.78,2.57-19.3,9.06-14.87,21.25c3.48,9.59,9.33,18.31,14.11,27.43c23.58,45,59.41,78.14,101.02,106.15
		c43.8,29.48,94.3,41.74,143.51,57.33c4.37,1.38,12.86,0.09,14.5-2.78c2.22-3.88,1.1-11.18-1.11-15.82
		c-6.98-14.69-14.26-29.38-23.06-43.02c-9.69-15.03-19.69-30.38-32.2-42.97c-34.46-34.68-74.08-62.57-119.95-80.2
		C1069.38,800.35,1041.63,792.35,1014.28,783.31z M907.97,582.24c-2.61,48.11,14.38,89.5,38.97,128.36
		c13.27,20.97,27.82,20.58,40.96-0.65c18.73-30.28,31.96-61.84,36.57-98.28c7.88-62.29-11.83-115.79-43.82-166.61
		c-4.55-7.23-13.72-14.74-20.99-3.22C932.31,485.13,903.61,528.2,907.97,582.24z M922.49,742.04c15.54-2.61,19.24-13.51,9.07-31.66
		c-17.23-30.77-37.11-59.17-62.76-84.36c-54.42-53.46-123.11-76.11-193.57-95.91c-4.07-1.14-10.43,2.13-14.09,5.25
		c-1.28,1.09,1.95,8.17,3.88,12.14c4.02,8.25,8.07,16.55,12.95,24.3c12.4,19.68,22.98,41.14,38.4,58.16
		c33.98,37.48,75.65,65.42,122.71,84.15C866.29,724.94,894.65,732.83,922.49,742.04z M937,798.09c-2.97-14.2-12.51-12.55-21.83-10.5
		c-55.98,12.27-108.1,33.83-154.45,67.66c-38.75,28.28-70.55,62.78-87.87,108.74c-1.69,4.48-5.38,8.17-7.28,12.6
		c-2.12,4.93-3.26,10.29-4.83,15.46c6.04,0.88,12.42,3.44,18.05,2.29c11.68-2.38,22.86-7.07,34.41-10.22
		c95.13-25.89,170.2-77.86,216.82-166.72C933.26,811.2,934.85,804.15,937,798.09z M970.8,792.77c16.11,0.09,36.96-16.16,37.15-28.96
		c0.19-12.19-21.46-28.37-37.76-28.23c-19.54,0.17-36.02,13.48-35.64,28.79C934.94,779.64,951.56,792.67,970.8,792.77z"/>
	<path d="M1028.85,443.52c-30.23-39.71-66.96-71.38-113.8-89.83c-70.19-27.66-141.35-28.6-213.18-6.44
		c-55.82,17.22-104.97,46.32-144.55,88.71c-21.95,23.52-41.04,51-55.9,79.57C470.79,574.45,467.96,638.7,481,702.27
		c10.14,49.39,27.98,97.1,56.72,139.62c19.44,28.76,37.27,58.84,59.03,85.74c30.37,37.53,63.24,73.09,95.95,108.65
		c28.31,30.78,58.64,59.72,86.73,90.68c33.56,36.99,66.24,74.82,98.19,113.22c11.74,14.11,21.24,30.36,30.1,46.54
		c20.34,37.12,39.66,74.79,59.42,112.28c5.96-20.04,12.32-40.79,18.3-61.66c19.69-68.69,55.31-128.18,102.71-181.3
		c58.76-65.85,132.32-112.27,205.59-159.28c73.29-47.02,147.77-92.78,211.1-153.17c38.14-36.37,70.7-77.34,94.49-125.71
		c27.77-56.46,31.08-114.08,18.03-173.47c-9.82-44.7-35.7-81-67.73-113.02c-111.65-111.59-305.91-117.02-431.51-40.29
		c-26.79,16.36-51.05,36.86-76.47,55.46c7.51-8.9,13.91-19.15,22.71-26.52c111.6-93.45,237.39-115.36,375.35-72.67
		c57.11,17.67,104.47,50.81,143.66,95.5c10.69,12.19,20.16,25.88,28.01,40.09c33.55,60.77,45.6,125.66,24.3,192.38
		c-11.42,35.78-30.56,69.41-48.78,102.59c-10.43,19-17.84,37.64-18.53,59.29c-0.31,9.55-2.96,19.03-2.35,29.59
		c7.22-11.82,14.67-23.5,21.62-35.48c13.23-22.79,31.29-41.12,52.91-55.65c22.47-15.1,48.35-10.24,73.15-9.5
		c8.36,0.25,10.48,18.04,4.04,27.47c-7.28,10.66-13.79,21.88-21.45,32.26c-12.52,16.96-26,33.22-38.45,50.23
		c-5.7,7.79-12.87,16.19-14.3,25.13c-6.36,39.79-28.48,70.34-50.36,102.92c-22.84,34-49.33,66.25-62.77,107.16
		c-8.71,26.5-28.42,49.74-45.11,73.07c-5.47,7.65-17.13,10.74-25.68,16.34c-25.66,16.81-51.14,33.89-76.78,50.74
		c-31.13,20.46-63.64,39.08-93.1,61.7c-24.26,18.63-45.54,41.34-66.87,63.46c-7.91,8.2-11.99,20.01-18.23,29.92
		c-3.09,4.91-7.1,9.25-12.77,12.18c3.8-23.65,14.14-43.06,29.45-60.29c34.7-39.05,78.6-66.13,121.28-94.88
		c28.65-19.3,57.11-38.86,85.94-57.89c8.96-5.91,18.82-10.46,28.27-15.63c23.52-12.86,35.62-34.75,46.4-57.91
		c11.66-25.06,22.37-50.77,36.43-74.46c13.23-22.28,30.91-41.87,45.5-63.42c16.41-24.23,34.25-47.72,38.91-78.22
		c3.75-24.57,17.62-44.24,33.63-63.01c13.43-15.75,24.43-33.58,36.36-50.6c5.77-8.23,11.19-16.7,17.39-26
		c-24.85-6.49-47.35-1.6-66.92,11.95c-26.15,18.11-44.07,43.24-57.6,72.34c-8.73,18.79-21.88,35.52-32.94,53.02
		c9.27,7.42,16.86,14.11,25.07,19.92c10.54,7.45,8.84,17.86,4.51,26.22c-26.57,51.28-69.05,87.58-114.9,120.9
		c-26.09,18.96-51.74,38.76-75.68,60.3c-11.58,10.43-18.47,25.97-28.13,38.7c-2.66,3.51-7.67,5.24-11.6,7.78
		c-1.42-1.55-2.85-3.1-4.27-4.65c4.23-7.13,8.07-14.53,12.75-21.34c20.98-30.51,45.9-56.13,78.71-75.17
		c24.43-14.18,45.31-34.5,67.58-52.33c10.07-8.06,19.68-16.7,32.45-27.61c-14.76,4.1-46.6-11.76-51.99-22.68
		c-7.51-15.21-0.04-30.15,22.6-46.9c-26.72,8.76-51.14,20.34-69.63,43.6c-10.81,13.61-24.88,25.11-38.96,35.56
		c-41.6,30.88-85.35,58.33-134.22,76.53c-29.34,10.92-60.08,18.83-88.04,32.49c-41.21,20.12-80.5,44.14-109.46,81.4
		c-39.06,50.25-70.96,104.08-86.2,166.73c-3.51,14.41-9.55,28.21-16.1,43.09c-3.83-17.04-19.02-25.93-25.66-42.17
		c-9.76-23.83-25.02-45.8-40.22-66.92c-20.9-29.06-43.47-56.97-66.17-84.67c-19.99-24.4-39.44-49.68-62.42-71.03
		c-14.1-13.11-33.51-22.18-52.09-28.47c-48.34-16.36-95.33-36.17-136.82-65.24c-31.14-21.83-56.71-51.46-85.84-76.35
		c-17.43-14.89-36.95-27.32-55.53-40.86c-0.89,1.19-1.78,2.38-2.67,3.57c7.92,7.55,16.13,14.84,23.6,22.82
		c2.38,2.53,3.67,6.82,3.98,10.43c2.05,23.53-22.49,25.2-33.31,38.23c-1.94,2.34-15.48-4.88-23.62-7.82
		c-1.44-0.52-2.65-1.71-6.58,0.25c21.64,19.63,43,39.56,64.97,58.81c42,36.8,91.57,65.57,121.56,115.03
		c1.94,3.2,3.65,6.9,4.11,10.54c0.42,3.29-1.02,6.82-1.64,10.24c-3.91-1.02-8.35-1.24-11.56-3.34c-2.36-1.54-3.18-5.5-4.56-8.45
		c-13.62-29.02-36.3-50.82-59.58-71.51c-15.88-14.12-35.3-24.18-51.9-37.59c-16.3-13.16-32.69-26.88-46.04-42.86
		c-17.39-20.81-33-43.38-47.11-66.57c-9.75-16.03-5.79-23.79,8.89-35.17c20.38-15.79,21.71-8.88,7.53-33.68
		c-16.85-29.47-33.71-59.03-52.63-87.17c-20.03-29.79-49.55-40.42-89.45-34.06c15.94,22.71,29.59,44.51,45.58,64.43
		c26.54,33.06,39.26,71.58,48.39,111.9c0.93,4.12,1.68,8.64,3.91,12.06c16.48,25.27,34.73,49.5,49.69,75.63
		c21.61,37.74,41.06,76.72,61.16,115.31c12.63,24.25,29.26,43.63,56.17,53.07c8.89,3.12,16.9,9.39,24.6,15.17
		c29.79,22.38,59.43,44.98,88.87,67.82c26.7,20.71,54.76,40.08,79.09,63.31c22.24,21.23,41.64,46.03,48.81,78.51
		c-10.24,5.25-17.68,3.93-19.48-7.68c-3.97-25.56-22.14-42.19-37.9-59.66c-25.51-28.28-56.86-49.57-88.76-70.41
		c-29.85-19.5-56.86-43.28-85.82-64.22c-16.19-11.7-35.2-19.77-50.34-32.55c-14.53-12.27-28.78-26.35-31.16-47.72
		c-0.54-4.85-5.14-9.27-7.98-13.83c-3.69-5.91-9.18-11.29-10.96-17.71c-9.15-32.94-30.51-58.9-46.81-87.88
		c-18.92-33.63-49.64-61.62-55.51-101.69c-3.84-26.21-15.37-48.01-29.6-69.14c-15.28-22.69-31.67-44.68-45.81-68.05
		c-4.57-7.55-5.12-18.68-4.07-27.77c0.3-2.63,12.48-4.92,19.38-5.59c54.89-5.27,82.92,30.66,107.53,71.19
		c7.77,12.79,14.32,26.32,21.43,39.51c1.61-0.64,3.22-1.28,4.83-1.92c-5.95-23.4-12.35-46.69-17.69-70.22
		c-3.59-15.83-4.48-32.33-8.73-47.95c-5.79-21.28-13.79-41.96-20.54-62.99c-6.48-20.16-1.82-23.21,18.2-26.64
		c38.26-6.54,57.39,16.13,76.15,42.66c3,4.24,11.49,4.6,17.44,6.76c1.54-4.92,4.71-9.96,4.34-14.73c-2.1-27-9.68-54.47-6.57-80.74
		c4.23-35.81,12.16-72.48,26.22-105.51c18.34-43.1,48.9-78.96,85.15-109.88c46.32-39.51,98.93-65.74,158.06-77.86
		c81.55-16.71,160.42-8.1,231.38,37.65c24.57,15.84,44.01,39.79,65.05,60.78C1025.6,429.95,1026.45,437.51,1028.85,443.52z
		 M498.46,954.41c-5.12-10.55-10.97-21.76-16-33.32c-2.53-5.82-3.57-12.28-5.29-18.45c-6.63-23.79-13.2-47.6-19.92-71.36
		c-5.26-18.58-13.92-36.87-15.32-55.72c-2.04-27.47-11.54-50.96-25.44-73.82c-8.76-14.41-20.95-22.49-37.26-25.24
		c-15.14-2.56-19.01,0.87-15.09,15.95c7.06,27.16,17.14,53.7,22.11,81.2c7.69,42.58,11.37,85.88,18.63,128.56
		c1.46,8.59,9.7,19.24,17.62,22.91C446.48,936.24,471.83,944.41,498.46,954.41z M448.82,733.73c2.45,15.1,3.79,29.68,7.42,43.66
		c2.93,11.25,9.91,21.45,12.88,32.7c8.77,33.28,14.32,67.58,25.45,100c5.49,15.98,12.26,30.79,11.6,48.01
		c-0.09,2.45,1.75,5.08,3.02,7.45c15.05,28.05,37.45,48.5,67.78,65.14c-5.25-21.6-9.29-41.07-14.8-60.11
		c-5.96-20.59-13.32-40.78-20.02-61.15c-4.16-12.65-7.14-25.83-12.56-37.92c-18.82-42.03-39.17-83.39-57.35-125.68
		C467.5,734.76,463.53,728.99,448.82,733.73z M1555.65,821.94c-5.61,3.51-7.56,4.34-9.02,5.7c-24.21,22.58-49.67,44.02-72.02,68.32
		c-12.57,13.66-17.64,32.77-18.52,49.59c22.36-8.94,43.12-20.02,65.27-25.17c16.2-3.77,21.87-11.66,23.77-25.79
		c0.93-6.97,1.58-13.98,2.61-20.93C1550.08,857.76,1552.58,841.89,1555.65,821.94z M1305.3,1016.41c-1.51-1.13-3.01-2.27-4.52-3.4
		c-45.43,32.23-90.85,64.45-136.28,96.68c0.98,1.59,1.96,3.19,2.94,4.78c10.74-4.17,21.39-8.62,32.25-12.45
		c26.9-9.51,53.98-18.52,80.79-28.29c4.58-1.67,10.48-5.29,11.81-9.32C1297.48,1048.69,1301.09,1032.45,1305.3,1016.41z
		 M632.57,1068.4c-0.88-4.86-1.1-8.1-2.07-11.1c-5.09-15.72-14.31-31.28-14.66-47.07c-0.49-22.59-10.24-39.17-23.03-55.38
		c-12.33-15.62-25.18-30.83-37.8-46.22c-1.2,0.83-2.39,1.66-3.59,2.49c5.13,10.17,11.98,19.85,15.06,30.6
		c9.03,31.47,16.36,63.42,24.89,95.04c1.31,4.85,4.44,10.4,8.43,13.1C609.53,1056.47,620.26,1061.59,632.57,1068.4z M626.61,997.96
		c0.77,6.9,0.44,11.18,1.8,14.84c7.81,21.01,15.69,42,24.35,62.66c1.8,4.3,6.34,8.68,10.67,10.49c23.74,9.89,47.8,18.99,71.76,28.36
		c-29.87-35.26-60.8-68.52-91.89-101.62C638.97,1008.07,633.8,1004.25,626.61,997.96z M1373.56,1019.36
		c17.79-12.8,35.12-24.49,51.58-37.31c19.95-15.54,13.41-39.23,19.06-62.72c-14.27,9.93-25.9,17.69-37.13,25.98
		c-7.25,5.36-17.55,10.22-20.14,17.55C1380.54,980.92,1377.81,1000.27,1373.56,1019.36z M1527.91,997.59
		c12.33-12.27,25.01-23.36,35.56-36.2c3.73-4.54,5.42-16.8,2.49-19.51c-5.97-5.51-17.57-11.51-23.56-9.11
		c-14.65,5.88-27.71,16.01-40.84,25.24c-7.51,5.28-8.48,12.84-0.97,19.15C1508.79,984.04,1517.73,990.04,1527.91,997.59z
		 M458.29,978.3c-16.34-13.83-29.82-25.92-44.06-37.02c-8.43-6.57-16.15-2.83-23.09,4.2c-7.07,7.17-10.09,14.36-2.53,22.76
		c11.43,12.71,23.05,25.26,35.84,39.25C435.06,998.34,444.76,989.97,458.29,978.3z M1365.83,976.07
		c-25.66,1.44-52.78,46.91-56.98,85.29c12.16-7.12,24.23-13.14,35.02-20.92c5.88-4.23,12.02-10.8,13.81-17.46
		C1361.79,1007.66,1363.3,991.65,1365.83,976.07z"/>
	<path d="M828.33,1575.5c-5.92,1.3-13.11,2.87-23.4,5.12c2.62-20.77,4.98-39.41,7.33-58.05c-2.28-0.79-4.57-1.58-6.85-2.37
		c-5.96,13.13-14.25,25.75-17.24,39.53c-3.2,14.73-8.67,20.07-25.41,14.84c4.38-20.22,8.77-40.45,13.36-61.62
		c-31.8,3.3-40.35,24.21-44.1,48.02c-2.29,14.54-9,18.43-25.36,13.4c4.06-16.46,8.79-32.68,11.73-49.21
		c1.02-5.75-2.37-12.28-4.61-22.34c9.78,0.79,20.16,1.64,30.55,2.48c18.37-5.59,48.22-5.56,53.54,0.84
		c12.53-0.49,23.72-4.04,30.71-0.12c4.79,2.69,5.24,15.84,4.95,24.21C833.03,1544.44,830.41,1558.56,828.33,1575.5z"/>
	<path d="M1279.76,1522.34c19.12,31.11,4.02,51.49-28.37,54.32c-10.76,0.94-21.66,0.15-31.37,0.15c5.47-31.88,10.75-62.7,16.9-98.55
		c11.22,0,26.73-2.51,40.97,0.67c15.73,3.52,25.69,16.01,9.85,33.92C1285.22,1515.69,1282.85,1518.65,1279.76,1522.34z
		 M1244.86,1568.08c24.09-13.45,25.34-21.57,7.85-37.56C1250.2,1542.54,1247.89,1553.62,1244.86,1568.08z M1262.16,1483.85
		c-2.57,12.53-4.58,22.35-7.09,34.58C1272.2,1509.28,1274.12,1500.12,1262.16,1483.85z"/>
	<path d="M1082.42,1532.26c7.14,13.88,13.97,27.14,20.84,40.48c-16.63,11.82-16.63,11.82-37.07-18.08
		c-5.51,10.93-7.48,26.66-26.62,20.34c4.72-33.77,9.41-67.37,14.58-104.42c5.13,0.36,14.23-0.35,22.06,2.48
		c2.01,0.73,0.57,12.68-0.31,19.35c-1.4,10.63-3.65,21.15-5.83,33.37c12.23-7.65,16.42-27.79,38.37-20.95
		C1098.91,1514.88,1090.59,1523.66,1082.42,1532.26z"/>
	<path d="M1644.91,1472.35c-3.34,17.75-6.42,34.13-9.76,51.89c13.2-5.75,14.12-30.85,36.94-17.82c-4.24,4.9-7.3,11.34-12.29,13.68
		c-14.47,6.79-13.17,16.37-6.71,27.41c5.23,8.94,11.05,17.54,16.7,26.42c-25.38,16.65-29.51-10.72-42-23
		c-2.03,7.35-2,14.28-5.45,17.9c-3.81,4-10.81,4.98-16.41,7.27c-0.79-4.54-2.86-9.3-2.16-13.6c4.16-25.45,9.18-50.76,13.3-76.21
		c0.58-3.56-2.21-7.66-4.21-13.94C1623.33,1472.35,1633.37,1472.35,1644.91,1472.35z"/>
	<path d="M479.05,1490.86c-16.83-9.11-22.12,5.04-30.44,11.59c-7.84-16.94-2.4-26.16,14.9-26.03c10.63,0.08,21.26,0.08,31.89,0.17
		c12.12,0.11,16.6,9.13,8.6,20.33c-13.79,19.3-28.76,37.76-43.37,56.47c-3.25,4.16-7.04,7.91-10.58,11.85
		c0.77,1.71,1.54,3.42,2.32,5.13c13.6-5.17,27.21-10.34,40.61-15.43c4.27,15.44,0.55,21.61-14.8,21.93
		c-13.08,0.27-26.18,0.4-39.24-0.14c-4.4-0.18-8.7-2.62-13.05-4.03c1.95-5.8,2.7-12.44,6.07-17.24
		C447.02,1533.94,462.84,1512.95,479.05,1490.86z"/>
	<path d="M1363.28,1504.15c-3.4,23.97-6.62,46.62-10.19,71.78c-13.16,0.85-29.24,2.48-45.33,2.49c-3.59,0-8.91-4.96-10.5-8.84
		c-8.97-21.85,5.01-57.86,27-64.79C1335.82,1501.15,1349.47,1504.15,1363.28,1504.15z M1341.07,1513.16c-3.23-1.1-6.45-2.2-9.68-3.3
		c-5.16,14.91-10.64,29.73-15.14,44.84c-0.67,2.26,3.28,5.9,5.1,8.9c1.72-0.61,3.44-1.22,5.16-1.83
		C1331.37,1545.57,1336.22,1529.37,1341.07,1513.16z"/>
	<path d="M705.79,1505.58c-3.11,22.83-6.16,45.17-9.42,69.04c-6.85,0.01-17.32,13.62-25.13-3.77c-4.01,2.01-7.95,3.79-11.7,5.9
		c-12.09,6.79-20.73-1.47-23.36-9.87c-6.01-19.22,5.28-36.19,15.7-50.39c5.74-7.82,19.77-10.46,30.63-13.26
		C688.68,1501.63,695.99,1504.41,705.79,1505.58z M661,1561.63c16.52-9.59,25.33-39.53,15.13-52.36
		C667.16,1525.78,656.01,1540.92,661,1561.63z"/>
	<path d="M945.2,1505.59c-1.75,11.44-3.62,22.97-5.26,34.54c-1.51,10.69-2.77,21.42-4.41,34.25c-6.32,0.95-16.13,13.29-22.21,1.61
		c-11.59,0-24.72,3.73-29.33-0.95c-5.69-5.77-7.3-19.16-5.41-28.16C886.33,1510.02,896.53,1496.39,945.2,1505.59z M896.76,1560.86
		c20.12-10.07,28.36-38.32,17.3-54.08C907.75,1526.48,902.26,1543.67,896.76,1560.86z"/>
	<path d="M1491.14,1504.28c-3.51,24.35-6.72,46.57-10.49,72.7c-5.84-0.44-14.61-1.15-23.39-1.75c-1.95-0.13-3.96-0.13-5.87,0.23
		c-25.65,4.75-27.6,3.1-27.41-23.39c0.25-35.3,18.99-51.61,54.81-47.84C1482.38,1504.61,1486.05,1504.28,1491.14,1504.28z
		 M1448.97,1562.78c15.93-19.27,20.76-37.94,13.31-51.48C1446.19,1527.46,1440.22,1550.55,1448.97,1562.78z"/>
	<path d="M1039.45,1498.64c-11.19,1.3-11.9-20.66-23.25-10.66c-5.54,4.88-4.54,17.13-6.67,26c-0.48,2-1.7,3.82-3.12,6.89
		c6.94,1.03,13.44,2,22.43,3.34c-4.73,3.06-7.55,6.44-9.91,6.15c-15.98-1.98-19.73,7.89-20.22,20.43
		c-0.21,5.39,1.47,10.86,2.29,16.3c5.65-1.79,11.46-3.22,16.9-5.5c3.06-1.28,5.52-3.98,9.56-7.03c2.53,12.8-0.46,21.06-11.89,21.91
		c-15.53,1.15-31.2,0.29-47.18,0.29c7-33.63,22.16-63.99,15.8-100.01c17.04,0,34.63-2.24,51.29,0.72
		C1048.41,1479.78,1042.93,1490.74,1039.45,1498.64z"/>
	<path d="M1106.2,1550.04c-0.12-24.35,18.85-50.34,45.56-47.79c11.83,1.13,18.09,6.46,21.24,16.5c6.02,19.21-8.43,49.13-27.06,57.06
		C1123.27,1585.47,1106.09,1574.33,1106.2,1550.04z M1136.01,1572.5c13.01-20.47,15.01-40.13,10.83-62.31
		C1129.05,1529.57,1124.73,1552.38,1136.01,1572.5z"/>
	<path d="M595.85,1569.46c-9.24,3.51-18.21,8.39-27.77,10.21c-14.55,2.77-24.97-7.07-25.32-22.24c-0.49-21.55,2.83-41.8,25.55-51.32
		c7.07-2.96,16.03-3.79,23.55-2.42c4.38,0.8,10.66,7.9,10.65,12.15c-0.01,6.18-3.84,13.3-8.11,18.22c-3.15,3.63-9.48,5.71-14.6,6.18
		c-10.82,0.99-16.88,5.46-14.07,16.6c3.07,12.2,11.24,13.1,21.44,7.81c1.92-0.99,4.69-0.34,7.06-0.45
		C594.77,1565.97,595.31,1567.71,595.85,1569.46z"/>
	<path d="M1396.57,1510.25c-7.22,4.35-14.44,8.7-22.83,13.76c-1.86-12.5-1.24-21.53,13.85-21.38c9.26,0.09,18.57-0.55,27.75,0.28
		c4.36,0.39,10.8,2.49,12.05,5.56c1.23,3.01-2.07,8.91-4.87,12.33c-12.17,14.88-24.89,29.33-39.68,46.59
		c12.34-1.83,21.49-3.18,30.65-4.53c1.1,1.18,2.21,2.36,3.31,3.54c-3.55,3.43-6.85,9.45-10.7,9.82
		c-12.95,1.25-26.14,1.23-39.14,0.28c-11.08-0.81-10.07-8.7-5.34-15.13c11.73-15.94,24.27-31.27,36.48-46.85
		C1397.58,1513.09,1397.07,1511.67,1396.57,1510.25z"/>
	<path d="M1595.62,1564.41c-8.5,13.07-23.57,17.35-38.18,13.68c-14.84-3.73-15.7-13.94-15.65-26.23
		c0.09-20.66,11.3-35.47,26.82-45.71c6.57-4.34,18.75-2.4,27.52-0.07c3.42,0.91,7.11,11.28,6.05,16.38
		c-2.19,10.55-9.36,17.42-21.54,18.84c-4.77,0.55-11.92,5.46-12.69,9.41c-0.98,5.02,2.15,14.57,5.8,15.91
		C1579.47,1568.71,1587.11,1565.57,1595.62,1564.41z M1569.34,1527.25c1.86,1.15,3.73,2.3,5.59,3.45
		c3.29-5.27,6.58-10.54,9.86-15.82c-1.96-1.22-3.93-2.44-5.89-3.66C1575.71,1516.56,1572.52,1521.9,1569.34,1527.25z"/>
	<path d="M614.13,1472.33c3.19-0.54,8.82-2.2,14.49-2.31c13.73-0.26,17,6.55,13.32,19.67c-6.63,23.65-11.81,47.73-16.83,71.78
		c-0.62,2.96,3.4,6.89,6.17,12.04c-3.48,1.2-7.16,2.73-10.98,3.73c-17.67,4.61-21.29,1.05-17.42-17.27
		c4.52-21.38,9.68-42.64,13.54-64.14C617.56,1489.44,615.23,1482.43,614.13,1472.33z"/>
	<path d="M1558.04,1505.15c-4.24,5.01-6.38,10.12-9.6,10.93c-21.88,5.5-25.75,23.69-30.56,41.42c-0.99,3.64-0.98,8.42-3.34,10.64
		c-3.94,3.69-9.42,5.72-14.25,8.45c-2.35-4.56-7.22-9.51-6.59-13.62c2.08-13.58,6.58-26.76,9.19-40.29
		c0.9-4.67-1.01-9.88-1.98-17.53C1517.68,1505.15,1536.23,1505.15,1558.04,1505.15z"/>
	<path d="M511.77,1504.56c7.96-0.57,17.71-1.26,29.74-2.12c-5.41,25.44-10.25,48.19-15.7,73.76c1.42-0.38-1.58,0.46-4.59,1.23
		c-15.05,3.85-19.5-0.01-16.44-14.69c2.7-12.98,6.28-25.79,8.5-38.84C514.2,1518.61,512.53,1512.88,511.77,1504.56z"/>
	<path d="M850.02,1504.27c7.3-0.39,17.03-0.9,25.77-1.36c-4.43,25.04-8.49,47.99-12.99,73.46c1.52-0.39-1.57,0.39-4.65,1.21
		c-15.42,4.07-19.57,0.93-16.75-14.18c2.03-10.89,6.42-21.35,8.37-32.26C851.1,1523.74,850.02,1515.91,850.02,1504.27z"/>
	<path d="M549.63,1487.16c-8.95,5.04-14.04,10.02-19.17,10.05c-3.4,0.02-6.85-7.03-10.28-10.91c4.67-3.22,9.04-8.12,14.13-9.05
		C537.57,1476.66,541.91,1481.91,549.63,1487.16z"/>
	<path d="M884.45,1485.81c-8.19,5.78-12.33,10.81-16.83,11.16c-3.08,0.23-6.65-6.06-10.01-9.44c3.78-3.62,7.04-8.83,11.52-10.27
		C871.92,1476.36,876.55,1481.16,884.45,1485.81z"/>
	<path d="M1218.11,1533.33c-12.5,1.54-24.99,3.09-37.49,4.63c-0.3-2.11-0.59-4.22-0.89-6.33c10.87-11.88,24.93-3.85,37.45-5.41
		C1217.49,1528.59,1217.8,1530.96,1218.11,1533.33z"/>
	<path d="M1217.82,810.11c-70.61-0.09-129.06-9.17-184.6-32.9c-6.2-2.65-10.62-9.45-15.87-14.33c5.03-4.42,9.33-10.7,15.19-12.98
		c106.22-41.37,213.4-45.62,321.49-7.24c12.84,4.56,26.01,8.22,38.75,13.04c3.44,1.3,5.84,5.33,8.72,8.11
		c-2.69,2.37-5,5.85-8.14,6.95C1333.09,791.99,1272.95,814.1,1217.82,810.11z M1349.5,764.16c-94.47-43.57-242.12-27.69-290.99,1.22
		C1155.12,796.9,1250.36,800.6,1349.5,764.16z"/>
	<path d="M722.91,810.68c-48.78,0.68-101.4-9.44-152.06-30.03c-8.03-3.26-16.89-4.47-24.91-7.73c-3.48-1.41-7.93-5.52-8.07-8.58
		c-0.13-2.95,4.13-7.69,7.48-8.97c78.41-29.94,158.83-48.38,243.07-33.58c37.87,6.65,75.02,17.71,112.15,28.01
		c6.68,1.85,11.68,9.78,17.45,14.9c-6.08,4.87-11.44,11.49-18.35,14.34C845.01,801.64,787.65,810.59,722.91,810.68z M593.54,763.51
		c94.57,37.29,188.9,32.71,283.09-0.26C782.28,730.6,687.9,725.96,593.54,763.51z"/>
	<path d="M1014.52,741.65c-14.42-0.01-20.73-8.07-14.65-21.22c20.34-43.96,49.13-81,87.03-112.03
		c50.09-41,109.84-58.68,169.84-76.54c4.82-1.43,13.11-0.19,15.89,3.1c2.63,3.12,1.84,11.38-0.36,15.99
		c-23.85,50.2-54.69,94.86-101.89,126.39c-46.29,30.93-96.46,52.44-150.99,63.72C1017.79,741.39,1016.14,741.47,1014.52,741.65z
		 M1029.45,715.51c83.28-16.72,182.6-78.92,207.97-156.29C1146.46,582.68,1072.98,628.35,1029.45,715.51z"/>
	<path d="M907.51,943.66c-2.58-47.42,13.74-87.36,37.16-124.96c14.67-23.56,29.74-23.19,44.47-0.34
		c39.63,61.47,50.65,127.14,25.88,196.41c-8.3,23.22-22.3,44.65-35.46,65.8c-8.95,14.37-15.72,13.48-25.18-1.19
		C927.3,1037.41,901.87,994.78,907.51,943.66z M968.34,1050.95c45.33-69.16,44.61-171.78-0.77-218.55
		C927.06,877.98,917.06,993.46,968.34,1050.95z"/>
	<path d="M1014.28,783.31c27.35,9.04,55.1,17.05,81.96,27.37c45.87,17.63,85.49,45.52,119.95,80.2
		c12.51,12.59,22.51,27.94,32.2,42.97c8.8,13.64,16.08,28.33,23.06,43.02c2.2,4.64,3.33,11.93,1.11,15.82
		c-1.64,2.87-10.13,4.17-14.5,2.78c-49.21-15.6-99.7-27.85-143.51-57.33c-41.61-28.01-77.44-61.15-101.02-106.15
		c-4.78-9.12-10.62-17.84-14.11-27.43C994.99,792.36,1000.5,785.88,1014.28,783.31z M1027.36,809.14
		c45.63,89.36,118.69,135.11,211.44,160.52C1197.23,876.15,1118.6,837.59,1027.36,809.14z"/>
	<path d="M907.97,582.24c-4.35-54.04,24.34-97.11,51.68-140.41c7.27-11.51,16.44-4.01,20.99,3.22
		c31.99,50.83,51.7,104.32,43.82,166.61c-4.61,36.44-17.85,68-36.57,98.28c-13.14,21.24-27.68,21.63-40.96,0.65
		C922.34,671.74,905.36,630.35,907.97,582.24z M967.78,694.44c46.73-48.97,46.04-179.3-1.13-215.86
		C918.12,531.5,926.53,648.49,967.78,694.44z"/>
	<path d="M922.49,742.04c-27.84-9.21-56.2-17.1-83.4-27.93c-47.05-18.73-88.73-46.67-122.71-84.15
		c-15.42-17.02-26.01-38.48-38.4-58.16c-4.88-7.75-8.94-16.05-12.95-24.3c-1.93-3.97-5.16-11.05-3.88-12.14
		c3.66-3.13,10.02-6.4,14.09-5.25c70.46,19.81,139.15,42.45,193.57,95.91c25.64,25.19,45.52,53.59,62.76,84.36
		C941.73,728.53,938.03,739.44,922.49,742.04z M905.66,713.7c-35.04-81.74-136.55-146.25-205.41-151.3
		C722.34,635.9,835.37,703.3,905.66,713.7z"/>
	<path d="M937,798.09c-2.15,6.06-3.73,13.11-6.98,19.3c-46.62,88.87-121.69,140.84-216.82,166.72
		c-11.55,3.14-22.73,7.83-34.41,10.22c-5.63,1.15-12.01-1.41-18.05-2.29c1.57-5.17,2.71-10.53,4.83-15.46
		c1.9-4.43,5.6-8.12,7.28-12.6c17.32-45.96,49.12-80.46,87.87-108.74c46.35-33.83,98.48-55.39,154.45-67.66
		C924.48,785.54,934.03,783.89,937,798.09z M905.58,811.76c-82.12,13.1-191.92,87.85-206.2,156.31
		C790.01,944.96,862.1,898.83,905.58,811.76z"/>
	<path d="M970.8,792.77c-19.24-0.1-35.86-13.13-36.24-28.41c-0.39-15.3,16.09-28.61,35.64-28.79c16.3-0.14,37.95,16.04,37.76,28.23
		C1007.75,776.61,986.91,792.86,970.8,792.77z"/>
	<path class="st0" d="M498.46,954.41c-26.63-10-51.98-18.17-75.96-29.3c-7.91-3.67-16.16-14.32-17.62-22.91
		c-7.26-42.67-10.94-85.97-18.63-128.56c-4.97-27.5-15.05-54.04-22.11-81.2c-3.92-15.08-0.05-18.5,15.09-15.95
		c16.31,2.75,28.5,10.83,37.26,25.24c13.9,22.86,23.4,46.35,25.44,73.82c1.4,18.85,10.06,37.13,15.32,55.72
		c6.72,23.76,13.29,47.57,19.92,71.36c1.72,6.17,2.76,12.63,5.29,18.45C487.5,932.65,493.34,943.85,498.46,954.41z"/>
	<path class="st0" d="M448.82,733.73c14.71-4.74,18.68,1.04,23.43,12.09c18.18,42.29,38.52,83.65,57.35,125.68
		c5.41,12.09,8.39,25.26,12.56,37.92c6.7,20.38,14.06,40.56,20.02,61.15c5.51,19.04,9.55,38.51,14.8,60.11
		c-30.33-16.64-52.74-37.1-67.78-65.14c-1.27-2.37-3.11-5-3.02-7.45c0.66-17.22-6.11-32.03-11.6-48.01
		c-11.13-32.42-16.68-66.72-25.45-100c-2.97-11.25-9.95-21.44-12.88-32.7C452.61,763.41,451.28,748.83,448.82,733.73z"/>
	<path class="st0" d="M1555.65,821.94c-3.07,19.96-5.57,35.82-7.92,51.71c-1.03,6.95-1.67,13.96-2.61,20.93
		c-1.9,14.14-7.56,22.02-23.77,25.79c-22.14,5.15-42.91,16.23-65.27,25.17c0.88-16.82,5.96-35.92,18.52-49.59
		c22.35-24.3,47.81-45.74,72.02-68.32C1548.09,826.28,1550.04,825.45,1555.65,821.94z"/>
	<path class="st0" d="M1305.3,1016.41c-4.2,16.04-7.81,32.28-13.01,48c-1.33,4.03-7.23,7.65-11.81,9.32
		c-26.81,9.76-53.89,18.78-80.79,28.29c-10.86,3.84-21.5,8.28-32.25,12.45c-0.98-1.59-1.96-3.19-2.94-4.78
		c45.43-32.23,90.85-64.45,136.28-96.68C1302.28,1014.14,1303.79,1015.27,1305.3,1016.41z"/>
	<path class="st0" d="M632.57,1068.4c-12.31-6.81-23.04-11.93-32.77-18.53c-3.99-2.71-7.12-8.25-8.43-13.1
		c-8.53-31.62-15.86-63.57-24.89-95.04c-3.09-10.76-9.93-20.43-15.06-30.6c1.2-0.83,2.39-1.66,3.59-2.49
		c12.62,15.39,25.47,30.6,37.8,46.22c12.79,16.21,22.54,32.79,23.03,55.38c0.35,15.78,9.56,31.35,14.66,47.07
		C631.47,1060.3,631.69,1063.54,632.57,1068.4z"/>
	<path class="st0" d="M626.61,997.96c7.18,6.29,12.36,10.11,16.69,14.73c31.09,33.1,62.02,66.37,91.89,101.62
		c-23.95-9.37-48.02-18.47-71.76-28.36c-4.33-1.81-8.87-6.19-10.67-10.49c-8.66-20.66-16.54-41.65-24.35-62.66
		C627.05,1009.14,627.39,1004.85,626.61,997.96z"/>
	<path class="st0" d="M1373.56,1019.36c4.26-19.09,6.98-38.44,13.37-56.5c2.59-7.33,12.89-12.19,20.14-17.55
		c11.23-8.29,22.87-16.05,37.13-25.98c-5.65,23.48,0.89,47.18-19.06,62.72C1408.68,994.88,1391.35,1006.57,1373.56,1019.36z"/>
	<path class="st0" d="M1527.91,997.59c-10.18-7.55-19.12-13.55-27.32-20.43c-7.51-6.3-6.54-13.87,0.97-19.15
		c13.13-9.23,26.19-19.36,40.84-25.24c5.99-2.4,17.59,3.6,23.56,9.11c2.94,2.71,1.24,14.97-2.49,19.51
		C1552.92,974.23,1540.24,985.32,1527.91,997.59z"/>
	<path class="st0" d="M458.29,978.3c-13.53,11.67-23.23,20.05-33.83,29.19c-12.79-13.99-24.41-26.54-35.84-39.25
		c-7.56-8.4-4.54-15.6,2.53-22.76c6.94-7.03,14.66-10.78,23.09-4.2C428.47,952.38,441.94,964.47,458.29,978.3z"/>
	<path class="st0" d="M1365.83,976.07c-2.54,15.59-4.05,31.6-8.15,46.91c-1.78,6.65-7.93,13.22-13.81,17.46
		c-10.8,7.78-22.86,13.8-35.02,20.92C1313.05,1022.97,1340.18,977.51,1365.83,976.07z"/>
	<path class="st0" d="M1244.86,1568.08c3.02-14.45,5.34-25.54,7.85-37.56C1270.21,1546.51,1268.96,1554.63,1244.86,1568.08z"/>
	<path class="st0" d="M1262.16,1483.85c11.96,16.27,10.05,25.42-7.09,34.58C1257.57,1506.21,1259.59,1496.38,1262.16,1483.85z"/>
	<path class="st0" d="M1341.07,1513.16c-4.85,16.2-9.7,32.41-14.56,48.61c-1.72,0.61-3.44,1.22-5.16,1.83c-1.81-3-5.77-6.64-5.1-8.9
		c4.49-15.11,9.98-29.93,15.14-44.84C1334.62,1510.96,1337.84,1512.06,1341.07,1513.16z"/>
	<path class="st0" d="M661,1561.63c-4.99-20.71,6.15-35.84,15.13-52.36C686.34,1522.09,677.53,1552.04,661,1561.63z"/>
	<path class="st0" d="M896.76,1560.86c5.5-17.19,11-34.37,17.3-54.08C925.12,1522.54,916.88,1550.79,896.76,1560.86z"/>
	<path class="st0" d="M1448.97,1562.78c-8.75-12.23-2.78-35.32,13.31-51.48C1469.73,1524.84,1464.9,1543.5,1448.97,1562.78z"/>
	<path class="st0" d="M1136.01,1572.5c-11.28-20.12-6.96-42.94,10.83-62.31C1151.02,1532.38,1149.02,1552.03,1136.01,1572.5z"/>
	<path class="st0" d="M1569.34,1527.25c3.19-5.34,6.37-10.69,9.56-16.03c1.96,1.22,3.93,2.44,5.89,3.66
		c-3.29,5.27-6.58,10.54-9.86,15.82C1573.06,1529.55,1571.2,1528.4,1569.34,1527.25z"/>
	<path class="st0" d="M1349.5,764.16c-99.14,36.44-194.38,32.74-290.99,1.22C1107.38,736.47,1255.03,720.59,1349.5,764.16z
		 M1202.75,782.14c24.61-2.81,46.82-4.78,68.79-8.3c4.64-0.74,8.36-7.18,12.5-10.99c-4.09-3.84-7.66-10.13-12.35-11.13
		c-43.63-9.3-87.48-10.22-131.04,0.44c-4.94,1.21-8.84,6.7-13.23,10.2c4.3,3.69,8.15,9.76,12.97,10.65
		C1161.68,776.96,1183.24,779.42,1202.75,782.14z"/>
	<path class="st0" d="M593.54,763.51c94.35-37.55,188.73-32.91,283.09-0.26C782.44,796.22,688.11,800.8,593.54,763.51z
		 M727.62,782.11c21.47-2.6,43.59-4.69,65.45-8.34c5.28-0.88,9.7-6.95,14.51-10.63c-4.68-3.83-8.81-9.83-14.12-11.16
		c-42.89-10.79-86.09-9.34-129.03-0.28c-5.2,1.1-9.27,7.55-13.86,11.52c4.92,3.67,9.44,9.62,14.84,10.59
		C685.65,777.41,706.16,779.39,727.62,782.11z"/>
	<path class="st0" d="M1029.45,715.51c43.53-87.16,117.01-132.84,207.97-156.29C1212.04,636.59,1112.73,698.79,1029.45,715.51z
		 M1185.33,589.15c-4.12,0.85-6.37,0.97-8.35,1.77c-38,15.32-70.29,38.85-97.36,69.37c-2.81,3.17-3.91,12.03-1.67,14.5
		c3.18,3.52,11.24,6.23,15.4,4.62c13.57-5.27,27.44-11.12,39.14-19.58c19.72-14.26,38.28-30.23,56.36-46.56
		c3.91-3.53,4.82-11.59,4.87-17.58C1193.74,593.3,1187.68,590.87,1185.33,589.15z"/>
	<path class="st0" d="M968.34,1050.95c-51.28-57.49-41.27-172.97-0.77-218.55C1012.94,879.17,1013.67,981.79,968.34,1050.95z
		 M991.38,948.41c-1.26-15.71-1.82-28.23-3.38-40.62c-1.48-11.8-8.68-23.58-19.77-21.83c-7.71,1.22-17.76,13.49-19.37,22.2
		c-3.41,18.43-3.01,37.8-2.12,56.68c0.47,9.84,4.13,20.07,8.64,28.96c2.43,4.8,11.08,11.03,14.43,9.81
		c6.23-2.27,13.5-8.74,15.22-14.89C988.93,974.74,989.74,959.9,991.38,948.41z"/>
	<path class="st0" d="M1027.36,809.14c91.24,28.45,169.87,67.01,211.44,160.52C1146.05,944.24,1072.98,898.5,1027.36,809.14z
		 M1092.98,843.63c-5.27,2.59-11.72,3.72-12.96,6.88c-1.61,4.12-0.9,11.43,1.92,14.66c25.66,29.44,55.92,53.17,92.24,68.04
		c5.66,2.32,13.69-1.17,20.63-1.97c-1.92-6.9-1.7-16.05-6.16-20.28c-16.51-15.68-33.82-30.78-52.3-44.05
		C1123.3,857.53,1107.87,851.45,1092.98,843.63z"/>
	<path class="st0" d="M967.78,694.44c-41.25-45.95-49.66-162.94-1.13-215.86C1013.83,515.14,1014.51,645.47,967.78,694.44z
		 M991.49,584.86c-1.49-13.84-1.06-27.93-5.06-40.62c-2.55-8.07-11.66-14.07-17.84-20.99c-5.38,4.87-13.35,8.74-15.72,14.79
		c-11.68,29.87-11.1,60.72-1.18,90.81c2,6.08,13.68,14.65,17.55,13.19c7.19-2.72,14.64-11.1,17.04-18.69
		C990.13,611.15,989.97,597.69,991.49,584.86z"/>
	<path class="st0" d="M905.66,713.7c-70.29-10.4-183.32-77.8-205.41-151.3C769.1,567.45,870.62,631.96,905.66,713.7z M843.14,683.24
		c13.55-1.87,19.58-9.87,13.4-20.28c-4.58-7.72-11.15-15.04-18.48-20.19c-24.71-17.36-49.79-34.27-75.64-49.85
		c-4.66-2.81-13.62,1.53-20.59,2.56c1.8,5.69,1.99,12.91,5.7,16.78c12.71,13.25,25.62,26.75,40.39,37.49
		C805.26,662.35,824.64,672.19,843.14,683.24z"/>
	<path class="st0" d="M905.58,811.76c-43.47,87.08-115.57,133.2-206.2,156.31C713.65,899.61,823.45,824.86,905.58,811.76z
		 M750.94,936.73c5.24-1.71,8.94-2.69,12.45-4.11c33.38-13.53,60.58-35.87,85.16-61.44c4.47-4.65,5.17-12.93,7.61-19.54
		c-7.34-1.22-15.82-5.46-21.82-3.18c-36.93,14.02-66.05,39.35-92.13,68.26c-2.65,2.94-3.76,9.88-2.13,13.34
		C741.7,933.51,747.68,934.9,750.94,936.73z"/>
	<path d="M1202.75,782.14c-19.51-2.72-41.08-5.18-62.36-9.13c-4.82-0.89-8.67-6.96-12.97-10.65c4.38-3.5,8.28-8.99,13.23-10.2
		c43.56-10.67,87.41-9.74,131.04-0.44c4.69,1,8.26,7.29,12.35,11.13c-4.14,3.81-7.87,10.25-12.5,10.99
		C1249.57,777.36,1227.36,779.33,1202.75,782.14z"/>
	<path d="M727.62,782.11c-21.46-2.72-41.98-4.7-62.2-8.31c-5.4-0.96-9.92-6.92-14.84-10.59c4.59-3.97,8.66-10.42,13.86-11.52
		c42.94-9.06,86.14-10.51,129.03,0.28c5.31,1.33,9.44,7.33,14.12,11.16c-4.81,3.68-9.23,9.75-14.51,10.63
		C771.22,777.42,749.1,779.51,727.62,782.11z"/>
	<path d="M1185.33,589.15c2.34,1.72,8.41,4.16,8.39,6.55c-0.05,5.99-0.96,14.05-4.87,17.58c-18.08,16.33-36.64,32.3-56.36,46.56
		c-11.7,8.46-25.57,14.31-39.14,19.58c-4.16,1.61-12.21-1.1-15.4-4.62c-2.24-2.48-1.14-11.34,1.67-14.5
		c27.07-30.52,59.36-54.05,97.36-69.37C1178.96,590.12,1181.21,589.99,1185.33,589.15z"/>
	<path d="M991.38,948.41c-1.64,11.5-2.44,26.33-6.35,40.31c-1.72,6.15-8.99,12.62-15.22,14.89c-3.36,1.23-12-5-14.43-9.81
		c-4.5-8.9-8.17-19.12-8.64-28.96c-0.9-18.89-1.29-38.26,2.12-56.68c1.61-8.7,11.66-20.98,19.37-22.2
		c11.09-1.75,18.29,10.03,19.77,21.83C989.56,920.18,990.12,932.7,991.38,948.41z"/>
	<path d="M1092.98,843.63c14.89,7.82,30.32,13.9,43.38,23.28c18.48,13.27,35.79,28.37,52.3,44.05c4.45,4.23,4.23,13.39,6.16,20.28
		c-6.94,0.8-14.97,4.29-20.63,1.97c-36.32-14.87-66.57-38.6-92.24-68.04c-2.82-3.23-3.54-10.54-1.92-14.66
		C1081.26,847.35,1087.71,846.22,1092.98,843.63z"/>
	<path d="M991.49,584.86c-1.52,12.83-1.36,26.29-5.21,38.49c-2.4,7.59-9.85,15.98-17.04,18.69c-3.86,1.46-15.54-7.12-17.55-13.19
		c-9.92-30.09-10.49-60.94,1.18-90.81c2.37-6.05,10.33-9.92,15.72-14.79c6.17,6.93,15.29,12.92,17.84,20.99
		C990.43,556.93,990.01,571.02,991.49,584.86z"/>
	<path d="M843.14,683.24c-18.5-11.05-37.87-20.88-55.23-33.5c-14.77-10.74-27.68-24.23-40.39-37.49c-3.7-3.86-3.89-11.09-5.7-16.78
		c6.97-1.04,15.93-5.37,20.59-2.56c25.85,15.58,50.93,32.49,75.64,49.85c7.33,5.15,13.9,12.48,18.48,20.19
		C862.72,673.37,856.69,681.37,843.14,683.24z"/>
	<path d="M750.94,936.73c-3.26-1.83-9.24-3.22-10.85-6.66c-1.63-3.46-0.52-10.4,2.13-13.34c26.08-28.92,55.2-54.24,92.13-68.26
		c6.01-2.28,14.49,1.95,21.82,3.18c-2.44,6.61-3.14,14.89-7.61,19.54c-24.59,25.57-51.78,47.91-85.16,61.44
		C759.87,934.04,756.18,935.02,750.94,936.73z"/>
</g>
</svg>
